# Blender v2.69 (sub 0) OBJ File: 'VoxerMenuNapis.blend'
# www.blender.org
v 1.024586 0.271704 0.001728
v 1.113022 0.184798 0.001728
v 1.114104 0.060814 0.001728
v 0.903214 -0.028704 0.001728
v 0.814778 0.058202 0.001728
v 0.813696 0.182186 0.001728
v 0.900601 0.270622 0.001728
v 1.024586 0.271704 0.084672
v 1.113022 0.184798 0.084672
v 1.114104 0.060814 0.084672
v 1.243241 -0.174271 0.001728
v 0.903214 -0.028704 0.084672
v 0.814778 0.058202 0.084672
v 0.813696 0.182186 0.084672
v 0.900602 0.270622 0.084672
v 0.994243 0.196602 0.001728
v 1.038461 0.153149 0.001728
v 0.994243 0.196602 0.084672
v 1.038461 0.153149 0.084672
v 1.039002 0.091157 0.001728
v 1.039002 0.091157 0.084672
v 1.070651 0.016596 0.001728
v 0.995549 0.046939 0.001728
v 1.070651 0.016596 0.084672
v 0.995549 0.046939 0.084672
v 0.965206 -0.028163 0.001728
v 0.933557 0.046398 0.001728
v 0.965206 -0.028163 0.084672
v 0.933557 0.046398 0.084672
v 0.889339 0.089851 0.001728
v 0.858996 0.014749 0.084672
v 0.889339 0.089851 0.084672
v 0.888798 0.151843 0.001728
v 0.888798 0.151843 0.084672
v 0.932251 0.196061 0.001728
v 0.932251 0.196061 0.084672
v 0.858996 -0.228251 0.084672
v 0.858996 -0.228251 0.001728
v 0.791785 -0.268498 0.084672
v 0.926207 -0.269004 0.084672
v 0.791785 -0.268499 0.001728
v 0.926207 -0.269004 0.001728
v 1.072695 -0.122152 0.084672
v 1.160822 -0.134231 0.084672
v 1.162241 -0.201271 0.001728
v 1.160822 -0.134231 0.001728
v 1.072695 -0.122152 0.001728
v 1.130517 -0.268504 0.084672
v 1.130517 -0.268504 0.001728
v 1.162241 -0.201271 0.084672
v 1.243241 -0.174271 0.084672
v 1.217661 -0.268311 0.001728
v 1.217661 -0.268311 0.084672
v 1.217661 -0.268311 0.084672
v 1.217661 -0.268311 0.001728
v 0.751410 -0.150124 0.000000
v 0.470818 -0.266224 0.000000
v 0.456736 -0.099130 0.000000
v 0.469800 -0.058050 0.000000
v 0.513436 -0.169512 0.000000
v 0.751410 -0.150124 0.086400
v 0.513436 -0.169512 0.086400
v 0.456736 -0.099130 0.086400
v 0.469800 -0.058050 0.086400
v 0.470818 -0.266224 0.086400
v 0.751410 0.150124 0.086400
v 0.470818 0.266224 0.086400
v 0.648000 0.000000 0.086400
v 0.324000 0.000000 0.086400
v 0.456736 0.099130 0.086400
v 0.469800 0.058050 0.086400
v 0.513436 0.169512 0.086400
v 0.648000 0.000000 0.000000
v 0.751410 0.150124 -0.000000
v 0.513436 0.169512 -0.000000
v 0.456736 0.099130 -0.000000
v 0.469800 0.058050 -0.000000
v 0.470818 0.266224 -0.000000
v 0.324000 0.000000 0.000000
v 0.135000 0.270000 0.086400
v 0.270000 -0.135000 0.086400
v -0.270000 -0.135000 0.086400
v -0.135000 0.270000 0.086400
v -0.135000 -0.270000 0.086400
v 0.270000 0.135000 0.086400
v 0.135000 -0.270000 0.086400
v -0.270000 0.135000 0.086400
v 0.000000 0.067500 0.086400
v 0.067500 -0.000000 0.086400
v -0.067500 0.000000 0.086400
v 0.000000 -0.067500 0.086400
v 0.000000 -0.067500 -0.000000
v -0.067500 0.000000 -0.000000
v 0.067500 -0.000000 -0.000000
v 0.000000 0.067500 -0.000000
v -0.270000 0.135000 -0.000000
v 0.135000 -0.270000 0.000000
v 0.270000 0.135000 -0.000000
v -0.135000 -0.270000 0.000000
v -0.135000 0.270000 -0.000000
v -0.270000 -0.135000 0.000000
v 0.270000 -0.135000 0.000000
v 0.135000 0.270000 -0.000000
v -0.540000 0.270000 -0.000000
v -0.349081 0.190919 -0.000000
v -0.270000 -0.000000 0.000000
v -0.349081 -0.190919 0.000000
v -0.540000 -0.270000 0.000000
v -0.730919 -0.190919 0.000000
v -0.810000 0.000000 0.000000
v -0.730919 0.190919 -0.000000
v -0.540000 0.270000 0.086400
v -0.349081 0.190919 0.086400
v -0.270000 0.000000 0.086400
v -0.349081 -0.190919 0.086400
v -0.540000 -0.270000 0.086400
v -0.730919 -0.190919 0.086400
v -0.810000 0.000000 0.086400
v -0.730919 0.190919 0.086400
v -0.540000 0.135000 -0.000000
v -0.444541 0.095459 -0.000000
v -0.540000 0.135000 0.086400
v -0.444541 0.095459 0.086400
v -0.405000 -0.000000 0.000000
v -0.405000 0.000000 0.086400
v -0.444541 -0.095459 0.000000
v -0.444541 -0.095459 0.086400
v -0.540000 -0.135000 0.000000
v -0.540000 -0.135000 0.086400
v -0.635459 -0.095459 0.000000
v -0.635459 -0.095459 0.086400
v -0.675000 -0.000000 0.000000
v -0.675000 0.000000 0.086400
v -0.635459 0.095459 -0.000000
v -0.635459 0.095460 0.086400
v -0.810000 0.270000 0.086400
v -1.080000 -0.270000 0.086400
v -1.350000 0.270000 0.086400
v -1.215000 0.270000 0.086400
v -0.945000 0.270000 0.086400
v -1.080000 -0.135000 0.086400
v -1.080000 -0.135000 0.000000
v -0.945000 0.270000 -0.000000
v -1.215000 0.270000 -0.000000
v -1.350000 0.270000 -0.000000
v -1.080000 -0.270000 0.000000
v -0.810000 0.270000 -0.000000
vt 0.648416 0.595277
vt 0.735481 0.595277
vt 0.648416 0.646316
vt 0.744783 0.595277
vt 0.814345 0.595277
vt 0.814345 0.646316
vt 0.360919 0.392919
vt 0.360919 0.443958
vt 0.335487 0.392919
vt 0.823647 0.595277
vt 0.860293 0.595277
vt 0.823647 0.646316
vt 0.575001 0.708783
vt 0.544043 0.708783
vt 0.544043 0.657744
vt 0.729809 0.380691
vt 0.800780 0.380691
vt 0.800780 0.431730
vt 0.814356 0.583848
vt 0.752788 0.583848
vt 0.814356 0.532810
vt 0.682494 0.021879
vt 0.682494 0.072917
vt 0.631629 0.072917
vt 0.756563 0.167671
vt 0.756563 0.105756
vt 0.807601 0.167671
vt 0.782483 0.365182
vt 0.731445 0.365182
vt 0.731445 0.294211
vt 0.624343 0.708783
vt 0.593385 0.708783
vt 0.593385 0.657744
vt 0.780269 0.706656
vt 0.744783 0.706656
vt 0.780269 0.655618
vt 0.885036 0.359222
vt 0.854252 0.359222
vt 0.885036 0.308184
vt 0.202886 0.506425
vt 0.177454 0.506425
vt 0.202886 0.455386
vt 0.880869 0.706656
vt 0.849912 0.706656
vt 0.880869 0.655618
vt 0.840609 0.655618
vt 0.840609 0.691103
vt 0.789571 0.655618
vt 0.372907 0.683916
vt 0.372907 0.714700
vt 0.321868 0.683916
vt 0.508647 0.446084
vt 0.508647 0.395046
vt 0.534080 0.446084
vt 0.401094 0.582447
vt 0.495019 0.582447
vt 0.401094 0.633485
vt 0.376588 0.508551
vt 0.338210 0.508551
vt 0.376588 0.457513
vt 0.463561 0.693826
vt 0.463561 0.642787
vt 0.518403 0.693826
vt 0.648416 0.691366
vt 0.648416 0.655618
vt 0.699454 0.691366
vt 0.823658 0.532810
vt 0.859774 0.532810
vt 0.823659 0.583848
vt 0.618844 0.056173
vt 0.567806 0.056173
vt 0.618844 0.020243
vt 0.499345 0.573145
vt 0.401094 0.573145
vt 0.499345 0.519980
vt 0.558504 0.073408
vt 0.511985 0.073408
vt 0.558504 0.020243
vt 0.532764 0.508551
vt 0.508647 0.508551
vt 0.532764 0.455386
vt 0.421987 0.207645
vt 0.554900 0.207645
vt 0.421987 0.260810
vt 0.310440 0.571018
vt 0.212188 0.571018
vt 0.310440 0.517853
vt 0.511984 0.082710
vt 0.558503 0.082710
vt 0.511984 0.135875
vt 0.178769 0.515727
vt 0.202886 0.515727
vt 0.178769 0.568892
vt 0.544043 0.595277
vt 0.624343 0.595277
vt 0.544043 0.648442
vt 0.361581 0.383617
vt 0.197723 0.383617
vt 0.361581 0.330452
vt 0.370883 0.332579
vt 0.503795 0.332579
vt 0.370883 0.385744
vt 0.534741 0.270112
vt 0.534741 0.323277
vt 0.370883 0.270112
vt 0.729809 0.521331
vt 0.729809 0.441032
vt 0.782974 0.521331
vt 0.544043 0.398574
vt 0.544043 0.270112
vt 0.597208 0.398574
vt 0.385890 0.457513
vt 0.499345 0.457513
vt 0.385890 0.510678
vt 0.657498 0.523508
vt 0.544043 0.523508
vt 0.657498 0.470343
vt 0.326185 0.446084
vt 0.197723 0.446084
vt 0.326185 0.392919
vt 0.720507 0.407876
vt 0.720507 0.521331
vt 0.667342 0.407876
vt 0.622326 0.067754
vt 0.622326 0.196216
vt 0.569162 0.067754
vt 0.370883 0.395046
vt 0.499345 0.395046
vt 0.370883 0.448211
vt 0.564202 0.207645
vt 0.677657 0.207645
vt 0.564202 0.260810
vt 0.722142 0.270112
vt 0.722142 0.365182
vt 0.668977 0.270112
vt 0.544043 0.532810
vt 0.639113 0.532810
vt 0.544043 0.585975
vt 0.686959 0.207645
vt 0.782029 0.207645
vt 0.686959 0.260810
vt 0.743486 0.585975
vt 0.648416 0.585975
vt 0.743486 0.532810
vt 0.747261 0.196216
vt 0.694096 0.196216
vt 0.747261 0.105756
vt 0.372907 0.517853
vt 0.372907 0.608313
vt 0.319742 0.517853
vt 0.848329 0.260810
vt 0.791331 0.260810
vt 0.791331 0.207645
vt 0.849274 0.494197
vt 0.792276 0.494197
vt 0.792276 0.441032
vt 0.302648 0.695953
vt 0.257418 0.695952
vt 0.302648 0.642788
vt 0.862133 0.158921
vt 0.816903 0.158921
vt 0.862133 0.105756
vt 0.372907 0.617615
vt 0.372907 0.674614
vt 0.319742 0.617615
vt 0.844950 0.308184
vt 0.844950 0.365182
vt 0.791785 0.308184
vt 0.248116 0.642788
vt 0.248116 0.688017
vt 0.194951 0.642788
vt 0.810082 0.431730
vt 0.810082 0.378565
vt 0.855312 0.431730
vt 0.174339 0.207645
vt 0.174339 0.260810
vt 0.412685 0.207645
vt 0.412685 0.198342
vt 0.412685 0.145177
vt 0.174339 0.198342
vt 0.847023 0.041074
vt 0.793858 0.041074
vt 0.847023 0.096454
vt 0.454259 0.642788
vt 0.401094 0.642787
vt 0.454259 0.698168
vt 0.502682 0.073408
vt 0.502682 0.020243
vt 0.174339 0.073408
vt 0.174339 0.082710
vt 0.174339 0.135875
vt 0.502682 0.082710
vt 0.658040 0.407876
vt 0.658040 0.461041
vt 0.544043 0.407876
vt 0.212188 0.508551
vt 0.212188 0.455386
vt 0.326185 0.508551
vt 0.212188 0.633485
vt 0.212188 0.580320
vt 0.302648 0.633485
vt 0.784555 0.043289
vt 0.784555 0.096454
vt 0.694096 0.043289
vt 0.659675 0.384108
vt 0.606510 0.384108
vt 0.606510 0.270112
vt 0.684794 0.196216
vt 0.631629 0.196216
vt 0.631629 0.082220
vt 0.559859 0.145177
vt 0.559859 0.196216
vt 0.421988 0.145177
vt 0.361581 0.321150
vt 0.174339 0.321150
vt 0.361581 0.270112
vt 0.735481 0.646316
vt 0.744784 0.646316
vt 0.335487 0.443958
vt 0.860293 0.646316
vt 0.575001 0.657744
vt 0.729809 0.431730
vt 0.752788 0.532810
vt 0.631629 0.021879
vt 0.807601 0.105756
vt 0.782483 0.294211
vt 0.624343 0.657744
vt 0.744783 0.655618
vt 0.854252 0.308184
vt 0.177454 0.455386
vt 0.849912 0.655618
vt 0.789571 0.691103
vt 0.321868 0.714700
vt 0.534080 0.395046
vt 0.495019 0.633485
vt 0.338210 0.457513
vt 0.518403 0.642787
vt 0.699454 0.655618
vt 0.859774 0.583848
vt 0.567806 0.020243
vt 0.401094 0.519980
vt 0.511985 0.020243
vt 0.508647 0.455386
vt 0.554900 0.260810
vt 0.212188 0.517853
vt 0.558503 0.135875
vt 0.202886 0.568892
vt 0.624343 0.648442
vt 0.197723 0.330452
vt 0.503795 0.385744
vt 0.370883 0.323277
vt 0.782974 0.441032
vt 0.597208 0.270112
vt 0.499345 0.510678
vt 0.544043 0.470343
vt 0.197723 0.392919
vt 0.667342 0.521331
vt 0.569162 0.196216
vt 0.499345 0.448211
vt 0.677657 0.260810
vt 0.668977 0.365182
vt 0.639113 0.585975
vt 0.782029 0.260810
vt 0.648416 0.532810
vt 0.694096 0.105756
vt 0.319742 0.608313
vt 0.848329 0.207645
vt 0.849274 0.441032
vt 0.257418 0.642788
vt 0.816903 0.105756
vt 0.319742 0.674613
vt 0.791785 0.365182
vt 0.194951 0.688017
vt 0.855312 0.378565
vt 0.412685 0.260810
vt 0.174339 0.145178
vt 0.793858 0.096454
vt 0.401094 0.698168
vt 0.174339 0.020243
vt 0.502682 0.135875
vt 0.544043 0.461041
vt 0.326185 0.455386
vt 0.302648 0.580321
vt 0.694096 0.096454
vt 0.659675 0.270112
vt 0.684794 0.082220
vt 0.421988 0.196216
vt 0.174339 0.270112
vt 0.850254 0.899765
vt 0.850059 0.922173
vt 0.823303 0.888325
vt 0.865765 0.938156
vt 0.822912 0.933141
vt 0.888645 0.884254
vt 0.915792 0.873286
vt 0.904352 0.900237
vt 0.931498 0.889269
vt 0.866237 0.884058
vt 0.877677 0.857107
vt 0.968930 0.770303
vt 0.978177 0.804295
vt 0.948898 0.794535
vt 0.855269 0.856912
vt 0.839286 0.872618
vt 0.888173 0.938352
vt 0.899141 0.965498
vt 0.904156 0.922645
vt 0.931107 0.934085
vt 0.814992 0.770235
vt 0.863581 0.770052
vt 0.714379 0.806015
vt 0.698974 0.771057
vt 0.800398 0.813023
vt 0.693884 0.831456
vt 0.693884 0.903119
vt 0.698974 0.963518
vt 0.645905 0.867287
vt 0.763019 0.867287
vt 0.698606 0.888270
vt 0.714379 0.928559
vt 0.800398 0.921552
vt 0.698606 0.846304
vt 0.528791 0.891686
vt 0.504392 0.867287
vt 0.553189 0.867287
vt 0.577588 0.964882
vt 0.626386 0.916085
vt 0.626386 0.818490
vt 0.577588 0.769692
vt 0.479993 0.964882
vt 0.431195 0.916085
vt 0.431195 0.818490
vt 0.479993 0.769692
vt 0.333600 0.818490
vt 0.299095 0.832782
vt 0.333600 0.769692
vt 0.368105 0.832782
vt 0.402611 0.798277
vt 0.236005 0.964882
vt 0.187208 0.964882
vt 0.138410 0.818490
vt 0.138410 0.769692
vt 0.040815 0.964882
vt 0.284803 0.867287
vt 0.264590 0.798277
vt 0.382398 0.867287
vt 0.431195 0.867287
vt 0.368105 0.901792
vt 0.402610 0.936297
vt 0.333600 0.916085
vt 0.333600 0.964882
vt 0.299095 0.901792
vt 0.236005 0.867287
vt 0.854325 0.965107
vt 0.937431 0.770233
vt 0.916530 0.823134
vt 0.948385 0.818768
vt 0.839286 0.784783
vt 0.528791 0.842889
vt 0.089612 0.964882
vt 0.264590 0.936298
vn -0.930042 -0.367454 0.000000
vn -0.658253 -0.752797 0.000000
vn 0.008727 -0.999962 0.000000
vn -0.316228 0.948683 0.000000
vn 0.713251 -0.700908 0.000001
vn 0.999962 0.008726 -0.000000
vn 0.700910 0.713250 -0.000000
vn -0.008727 0.999962 -0.000001
vn -0.713250 0.700910 -0.000001
vn -0.999962 -0.008726 -0.000001
vn 0.713249 -0.700911 -0.000000
vn 0.999962 0.008728 -0.000000
vn -0.008727 0.999962 -0.000000
vn -0.999962 -0.008731 0.000000
vn -0.700908 -0.713251 0.000000
vn 0.008726 -0.999962 0.000001
vn 0.858309 0.513134 -0.000000
vn 0.999776 0.021171 0.000000
vn 0.964938 -0.262480 0.000000
vn 0.002216 -0.999997 0.000000
vn -0.518476 -0.855092 0.000001
vn 0.513750 -0.857940 0.000000
vn -0.081199 0.996698 0.000000
vn 0.778735 0.627353 -0.000000
vn 0.952973 -0.303055 0.000000
vn 0.382332 -0.924025 0.000001
vn -0.081199 -0.996698 0.000000
vn 0.778735 -0.627353 0.000000
vn 0.952972 0.303057 0.000000
vn 0.309738 0.950822 -0.000000
vn -0.875668 0.482914 -0.000000
vn 0.382332 0.924025 -0.000001
vn -0.875668 -0.482914 0.000000
vn 0.309737 -0.950822 0.000000
vn 0.832050 -0.554700 0.000000
vn -0.554700 0.832050 0.000000
vn -0.554700 -0.832050 0.000000
vn -0.832051 -0.554700 0.000000
vn 0.554700 -0.832050 0.000000
vn -0.832050 0.554700 -0.000000
vn 0.832051 0.554700 -0.000000
vn 0.554700 0.832050 -0.000000
vn -0.707107 0.707107 -0.000000
vn 0.707107 -0.707107 0.000000
vn 0.707107 0.707107 -0.000000
vn -0.707107 -0.707107 0.000000
vn 0.382684 -0.923880 0.000000
vn -0.382684 -0.923879 0.000000
vn 0.923880 -0.382684 -0.000001
vn 0.923880 0.382683 -0.000000
vn 0.382684 0.923879 -0.000000
vn -0.382684 0.923879 -0.000000
vn -0.923879 0.382684 -0.000000
vn -0.923880 -0.382683 0.000000
vn -0.382684 -0.923880 -0.000000
vn 0.382683 -0.923880 0.000001
vn -0.948683 0.316228 -0.000000
vn 0.948684 0.316227 0.000000
vn 0.000000 1.000000 -0.000001
vn 0.894427 -0.447214 0.000000
vn -0.894427 -0.447213 0.000000
vn 0.923880 -0.382683 -0.000001
vn 0.923879 0.382684 0.000000
vn 0.382684 0.923879 0.000001
vn -0.382683 0.923880 -0.000001
vn -0.923879 0.382684 -0.000001
vn -0.923879 -0.382684 0.000000
vn 0.995453 0.095251 -0.000000
vn -0.997533 0.070207 -0.000000
vn -0.930042 -0.367453 0.000000
vn -0.658253 -0.752796 0.000002
vn 0.713250 -0.700909 0.000001
vn 0.999962 0.008727 -0.000000
vn 0.700908 0.713251 -0.000000
vn -0.008726 0.999962 -0.000001
vn -0.713251 0.700909 0.000000
vn -0.999962 -0.008727 0.000000
vn 0.713250 -0.700910 -0.000000
vn 0.999962 0.008726 -0.000001
vn 0.700910 0.713250 -0.000001
vn -0.713250 0.700909 -0.000000
vn -0.999962 -0.008725 0.000000
vn -0.700909 -0.713250 0.000001
vn 0.008726 -0.999962 0.000000
vn 0.858309 0.513134 -0.000001
vn 0.999776 0.021163 -0.000001
vn 0.002216 -0.999998 0.000000
vn -0.518475 -0.855092 0.000001
vn 0.513751 -0.857939 0.000001
vn 0.952973 -0.303056 0.000000
vn 0.382332 -0.924025 0.000000
vn 0.952973 0.303055 -0.000000
vn 0.309737 0.950822 -0.000000
vn -0.875667 0.482915 -0.000000
vn 0.382332 0.924025 0.000000
vn 0.923879 -0.382684 0.000000
vn 0.382683 0.923880 -0.000000
vn -0.382683 -0.923880 0.000001
vn 0.382683 -0.923880 0.000000
vn -0.948683 0.316227 0.000000
vn 0.948683 0.316228 -0.000000
vn 0.000000 1.000000 0.000000
vn 0.894427 -0.447213 0.000000
vn -0.894427 -0.447214 0.000000
vn 0.923879 -0.382683 0.000001
vn 0.923879 0.382684 -0.000001
vn 0.382683 0.923880 -0.000001
vn -0.382684 0.923879 -0.000003
vn -0.923880 -0.382683 0.000001
vn -0.997532 0.070207 -0.000001
vn 0.000000 0.000000 1.000000
vn 0.000001 0.000000 1.000000
s off
f 47/1/1 49/2/1 43/3/1
f 26/4/2 47/5/2 43/6/2
f 26/7/3 28/8/3 4/9/3
f 50/10/4 51/11/4 45/12/4
f 22/13/5 3/14/5 10/15/5
f 9/16/6 10/17/6 3/18/6
f 2/19/7 1/20/7 9/21/7
f 8/22/8 1/23/8 7/24/8
f 14/25/9 15/26/9 6/27/9
f 5/28/10 13/29/10 14/30/10
f 33/31/11 35/32/11 36/33/11
f 30/34/12 33/35/12 32/36/12
f 27/37/7 30/38/7 29/39/7
f 23/40/13 27/41/13 25/42/13
f 20/43/9 23/44/9 21/45/9
f 17/46/14 20/47/14 19/48/14
f 16/49/15 17/50/15 18/51/15
f 16/52/16 18/53/16 35/54/16
f 24/55/17 44/56/17 22/57/17
f 45/58/18 46/59/18 50/60/18
f 11/61/19 51/62/19 55/63/19
f 49/64/20 55/65/20 48/66/20
f 40/67/21 37/68/21 42/69/21
f 39/70/22 41/71/22 37/72/22
f 56/73/23 60/74/23 61/75/23
f 60/76/24 58/77/24 62/78/24
f 58/79/25 59/80/25 63/81/25
f 57/82/26 56/83/26 65/84/26
f 66/85/27 72/86/27 74/87/27
f 72/88/28 70/89/28 75/90/28
f 70/91/29 71/92/29 76/93/29
f 71/94/30 68/95/30 77/96/30
f 69/97/31 67/98/31 79/99/31
f 67/100/32 66/101/32 78/102/32
f 57/103/33 65/104/33 79/105/33
f 59/106/34 73/107/34 64/108/34
f 91/109/35 84/110/35 92/111/35
f 82/112/36 90/113/36 101/114/36
f 90/115/37 87/116/37 93/117/37
f 86/118/38 91/119/38 97/120/38
f 85/121/39 89/122/39 98/123/39
f 88/124/40 80/125/40 95/126/40
f 83/127/41 88/128/41 100/129/41
f 89/130/42 81/131/42 94/132/42
f 87/133/43 83/134/43 96/135/43
f 81/136/44 86/137/44 102/138/44
f 80/139/45 85/140/45 103/141/45
f 84/142/46 82/143/46 99/144/46
f 116/145/47 108/146/47 115/147/47
f 116/148/48 117/149/48 108/150/48
f 132/151/49 134/152/49 135/153/49
f 130/154/50 132/155/50 133/156/50
f 128/157/51 130/158/51 129/159/51
f 126/160/52 128/161/52 127/162/52
f 124/163/53 126/164/53 125/165/53
f 121/166/54 124/167/54 123/168/54
f 120/169/55 121/170/55 122/171/55
f 120/172/56 122/173/56 134/174/56
f 140/175/57 143/176/57 141/177/57
f 141/178/58 142/179/58 139/180/58
f 136/181/59 147/182/59 140/183/59
f 139/184/59 144/185/59 138/186/59
f 137/187/60 146/188/60 136/189/60
f 138/190/61 145/191/61 137/192/61
f 115/193/62 107/194/62 114/195/62
f 105/196/63 113/197/63 106/198/63
f 104/199/64 112/200/64 105/201/64
f 112/202/65 104/203/65 119/204/65
f 110/205/66 118/206/66 119/207/66
f 109/208/67 117/209/67 118/210/67
f 40/211/68 42/212/68 12/213/68
f 39/214/69 13/215/69 41/216/69
f 49/2/70 48/217/70 43/3/70
f 28/218/71 26/4/71 43/6/71
f 28/8/3 12/219/3 4/9/3
f 51/11/4 11/220/4 45/12/4
f 24/221/72 22/13/72 10/15/72
f 2/222/73 9/16/73 3/18/73
f 1/20/74 8/223/74 9/21/74
f 15/224/75 8/22/75 7/24/75
f 15/26/76 7/225/76 6/27/76
f 6/226/77 5/28/77 14/30/77
f 34/227/78 33/31/78 36/33/78
f 33/35/79 34/228/79 32/36/79
f 30/38/80 32/229/80 29/39/80
f 27/41/13 29/230/13 25/42/13
f 23/44/81 25/231/81 21/45/81
f 20/47/82 21/232/82 19/48/82
f 17/50/83 19/233/83 18/51/83
f 18/53/84 36/234/84 35/54/84
f 44/56/85 46/235/85 22/57/85
f 46/59/86 44/236/86 50/60/86
f 51/62/19 54/237/19 55/63/19
f 55/65/87 54/238/87 48/66/87
f 37/68/88 38/239/88 42/69/88
f 41/71/89 38/240/89 37/72/89
f 60/74/23 62/241/23 61/75/23
f 58/77/24 63/242/24 62/78/24
f 59/80/90 64/243/90 63/81/90
f 56/83/91 61/244/91 65/84/91
f 72/86/27 75/245/27 74/87/27
f 70/89/28 76/246/28 75/90/28
f 71/92/92 77/247/92 76/93/92
f 68/95/93 73/248/93 77/96/93
f 67/98/94 78/249/94 79/99/94
f 66/101/95 74/250/95 78/102/95
f 65/104/33 69/251/33 79/105/33
f 73/107/34 68/252/34 64/108/34
f 84/110/35 99/253/35 92/111/35
f 90/113/36 93/254/36 101/114/36
f 87/116/37 96/255/37 93/117/37
f 91/119/38 92/256/38 97/120/38
f 89/122/39 94/257/39 98/123/39
f 80/125/40 103/258/40 95/126/40
f 88/128/41 95/259/41 100/129/41
f 81/131/42 102/260/42 94/132/42
f 83/134/43 100/261/43 96/135/43
f 86/137/44 97/262/44 102/138/44
f 85/140/45 98/263/45 103/141/45
f 82/143/46 101/264/46 99/144/46
f 108/146/47 107/265/47 115/147/47
f 117/149/55 109/266/55 108/150/55
f 133/267/96 132/151/96 135/153/96
f 131/268/50 130/154/50 133/156/50
f 130/158/97 131/269/97 129/159/97
f 128/161/52 129/270/52 127/162/52
f 126/164/53 127/271/53 125/165/53
f 124/167/54 125/272/54 123/168/54
f 121/170/98 123/273/98 122/171/98
f 122/173/99 135/274/99 134/174/99
f 143/176/100 142/275/100 141/177/100
f 142/179/101 144/276/101 139/180/101
f 147/182/102 143/277/102 140/183/102
f 144/185/102 145/278/102 138/186/102
f 146/188/103 147/279/103 136/189/103
f 145/191/104 146/280/104 137/192/104
f 107/194/105 106/281/105 114/195/105
f 113/197/106 114/282/106 106/198/106
f 112/200/107 113/283/107 105/201/107
f 104/203/108 111/284/108 119/204/108
f 111/285/53 110/205/53 119/207/53
f 110/286/109 109/208/109 118/210/109
f 42/212/68 4/287/68 12/213/68
f 13/215/110 5/288/110 41/216/110
f 32/289/111 34/290/111 13/291/111
f 34/290/111 36/292/111 14/293/111
f 25/294/111 24/295/111 21/296/111
f 10/297/111 21/296/111 24/295/111
f 29/298/111 28/299/111 25/294/111
f 54/300/111 51/301/111 50/302/111
f 28/299/111 29/298/111 12/303/111
f 32/289/111 31/304/111 29/298/111
f 12/303/111 29/298/111 31/304/111
f 31/304/111 32/289/111 13/291/111
f 18/305/111 8/306/111 36/292/111
f 18/305/111 19/307/111 9/308/111
f 19/307/111 21/296/111 9/308/111
f 31/304/111 13/291/111 39/309/111
f 12/303/112 31/304/112 40/310/112
f 62/311/111 65/312/111 61/313/111
f 63/314/111 65/312/111 62/311/111
f 70/315/111 67/316/111 69/317/111
f 68/318/111 71/319/111 69/317/111
f 71/319/111 70/315/111 69/317/111
f 70/315/111 72/320/111 67/316/111
f 72/320/111 66/321/111 67/316/111
f 63/314/111 69/317/111 65/312/111
f 63/314/111 64/322/111 69/317/111
f 64/322/111 68/318/111 69/317/111
f 88/323/111 90/324/111 89/325/111
f 80/326/111 88/323/111 85/327/111
f 81/328/111 89/325/111 86/329/111
f 83/330/111 87/331/111 88/323/111
f 82/332/111 84/333/111 90/324/111
f 129/334/111 131/335/111 116/336/111
f 127/337/111 129/334/111 115/338/111
f 136/339/111 140/340/111 141/341/111
f 137/342/111 141/341/111 138/343/111
f 131/335/111 133/344/111 117/345/111
f 125/346/111 127/337/111 114/347/111
f 123/348/111 125/346/111 113/349/111
f 122/350/111 123/348/111 112/351/111
f 122/350/111 112/351/111 135/352/111
f 133/344/111 135/352/111 118/353/111
f 34/290/111 14/293/111 13/291/111
f 36/292/111 15/354/111 14/293/111
f 48/355/111 54/300/111 50/302/111
f 28/299/111 24/295/111 25/294/111
f 28/299/111 43/356/111 24/295/111
f 24/295/111 43/356/111 44/357/111
f 43/356/111 48/355/111 44/357/111
f 48/355/111 50/302/111 44/357/111
f 8/306/111 15/354/111 36/292/111
f 8/306/111 18/305/111 9/308/111
f 21/296/111 10/297/111 9/308/111
f 37/358/111 31/304/111 39/309/111
f 31/304/111 37/358/111 40/310/111
f 90/324/111 91/359/111 89/325/111
f 88/323/111 89/325/111 85/327/111
f 89/325/111 91/359/111 86/329/111
f 87/331/111 90/324/111 88/323/111
f 84/333/111 91/359/111 90/324/111
f 131/335/111 117/345/111 116/336/111
f 129/334/111 116/336/111 115/338/111
f 137/342/111 136/339/111 141/341/111
f 141/341/111 139/360/111 138/343/111
f 133/344/111 118/353/111 117/345/111
f 127/337/111 115/338/111 114/347/111
f 125/346/111 114/347/111 113/349/111
f 123/348/111 113/349/111 112/351/111
f 112/351/111 119/361/111 135/352/111
f 135/352/111 119/361/111 118/353/111
