# Blender v2.69 (sub 0) OBJ File: 'Base.blend'
# www.blender.org
v -0.388924 -0.002070 -0.028571
v -0.389000 -0.191520 -0.003571
v -0.389000 -0.191520 -0.028571
v 0.194076 0.193590 -0.028571
v 0.389000 -0.191520 -0.003571
v 0.389000 -0.191520 -0.028571
v -0.388924 -0.002070 -0.003571
v 0.194076 0.193590 0.021429
v 0.388924 -0.002070 -0.028571
v -0.194076 0.193590 -0.028571
v 0.388924 -0.002070 -0.003571
v -0.194076 0.193590 0.021429
v 0.194076 -0.191520 0.021429
v -0.194076 -0.191520 0.021429
vt 0.240460 0.536469
vt 0.459682 0.536469
vt 0.459682 0.966066
vt 0.166323 0.844498
vt 0.166323 0.536469
vt 0.222099 0.844498
vt 0.478044 0.610619
vt 0.689378 0.610607
vt 0.478045 0.638507
vt 0.715627 0.396540
vt 0.715627 0.088511
vt 0.771403 0.088511
vt 0.911033 0.592245
vt 0.478044 0.592245
vt 0.911033 0.536469
vt 0.689378 0.684756
vt 0.478044 0.684756
vt 0.689378 0.656868
vt 0.459682 0.518107
vt 0.026692 0.518107
vt 0.459682 0.088511
vt 0.478128 0.306773
vt 0.697265 0.088511
vt 0.478044 0.518107
vt 0.949395 0.965001
vt 0.921507 0.965001
vt 0.977283 0.747561
vt 0.240545 0.747804
vt 0.194212 0.536469
vt 0.689380 0.638495
vt 0.743515 0.396540
vt 0.478044 0.536469
vt 0.478044 0.656868
vt 0.026692 0.088511
vt 0.697265 0.518107
vt 0.921507 0.097131
vt 0.949395 0.097131
vt 0.977283 0.314571
vn -0.127213 0.000000 0.991875
vn -0.708577 0.705633 -0.000001
vn 1.000000 0.000401 0.000000
vn 0.708577 0.705633 -0.000001
vn 0.000000 1.000000 -0.000002
vn -1.000000 0.000401 0.000000
vn 0.000000 0.000000 1.000000
vn 0.127312 0.000051 0.991863
vn 0.000000 -1.000000 0.000000
vn -0.127313 0.000051 0.991863
vn -0.708577 0.705633 0.000000
vn 0.708577 0.705633 0.000000
vn 0.000000 1.000000 -0.000001
vn 0.127213 0.000000 0.991875
vn 0.000000 -1.000000 0.000001
s off
f 2/1/1 14/2/1 12/3/1
f 10/4/2 1/5/2 12/6/2
f 6/7/3 9/8/3 5/9/3
f 9/10/4 4/11/4 8/12/4
f 4/13/5 10/14/5 8/15/5
f 1/16/6 3/17/6 7/18/6
f 8/19/7 12/20/7 13/21/7
f 11/22/8 8/23/8 5/24/8
f 2/25/9 3/26/9 14/27/9
f 7/28/10 2/1/10 12/3/10
f 1/5/11 7/29/11 12/6/11
f 9/8/3 11/30/3 5/9/3
f 11/31/12 9/10/12 8/12/12
f 10/14/13 12/32/13 8/15/13
f 3/17/6 2/33/6 7/18/6
f 12/20/7 14/34/7 13/21/7
f 8/23/14 13/35/14 5/24/14
f 3/26/15 6/36/15 14/27/15
f 6/36/9 5/37/9 14/27/9
f 5/37/9 13/38/9 14/27/9
