# Blender v2.69 (sub 0) OBJ File: 'money2.blend'
# www.blender.org
v 0.056924 -0.137427 0.000000
v 0.137427 -0.056924 0.000000
v 0.137427 0.056924 0.000000
v 0.056924 0.137427 0.000000
v -0.056924 0.137427 0.000000
v -0.137427 0.056924 0.000000
v -0.137427 -0.056924 0.000000
v -0.056924 -0.137427 0.000000
v 0.056924 -0.137427 0.025500
v 0.137427 -0.056924 0.025500
v 0.137427 0.056924 0.025500
v 0.056924 0.137427 0.025500
v -0.056924 0.137427 0.025500
v -0.137427 0.056924 0.025500
v -0.137427 -0.056924 0.025500
v -0.056924 -0.137427 0.025500
vt 0.610245 0.788402
vt 0.331086 0.788402
vt 0.610245 0.725876
vt 0.331086 0.920164
vt 0.610245 0.920165
vt 0.331086 0.982691
vt 0.644862 0.725876
vt 0.924021 0.725876
vt 0.644862 0.788402
vt 0.017309 0.725876
vt 0.296468 0.725876
vt 0.017309 0.788402
vt 0.017309 0.823020
vt 0.296468 0.823020
vt 0.017309 0.885547
vt 0.924021 0.885547
vt 0.644862 0.885547
vt 0.924021 0.823020
vt 0.296468 0.982691
vt 0.017309 0.982691
vt 0.296468 0.920165
vt 0.610245 0.885547
vt 0.331086 0.885547
vt 0.610245 0.823020
vt 0.017309 0.493863
vt 0.017309 0.214704
vt 0.214704 0.017309
vt 0.214907 0.016178
vt 0.016644 0.494828
vt 0.016644 0.214441
vt 0.331086 0.725876
vt 0.610245 0.982691
vt 0.924021 0.788402
vt 0.296468 0.788402
vt 0.296468 0.885547
vt 0.644862 0.823020
vt 0.017309 0.920164
vt 0.331086 0.823020
vt 0.214704 0.691258
vt 0.493863 0.017309
vt 0.493863 0.691258
vt 0.691258 0.493863
vt 0.691258 0.214704
vt 0.495294 0.016178
vt 0.693557 0.214441
vt 0.214907 0.693092
vt 0.693557 0.494828
vt 0.495294 0.693092
vn -0.000000 -1.000000 0.000000
vn -0.707107 -0.707107 0.000000
vn -1.000000 0.000000 0.000000
vn -0.707107 0.707107 0.000000
vn 0.000000 1.000000 0.000000
vn 0.707107 0.707107 0.000000
vn 1.000000 0.000000 0.000000
vn 0.707107 -0.707107 0.000000
vn 0.000000 0.000000 1.000000
vn 0.000000 0.000000 -1.000000
s off
f 8/1/1 1/2/1 16/3/1
f 7/4/2 8/5/2 15/6/2
f 6/7/3 7/8/3 14/9/3
f 5/10/4 6/11/4 13/12/4
f 4/13/5 5/14/5 12/15/5
f 3/16/6 4/17/6 11/18/6
f 2/19/7 3/20/7 10/21/7
f 1/22/8 2/23/8 9/24/8
f 10/25/9 11/26/9 12/27/9
f 5/28/10 7/29/10 6/30/10
f 1/2/1 9/31/1 16/3/1
f 8/5/2 16/32/2 15/6/2
f 7/8/3 15/33/3 14/9/3
f 6/11/4 14/34/4 13/12/4
f 5/14/5 13/35/5 12/15/5
f 4/17/6 12/36/6 11/18/6
f 3/20/7 11/37/7 10/21/7
f 2/23/8 10/38/8 9/24/8
f 9/39/9 10/25/9 12/27/9
f 9/39/9 12/27/9 13/40/9
f 16/41/9 9/39/9 13/40/9
f 15/42/9 16/41/9 14/43/9
f 16/41/9 13/40/9 14/43/9
f 4/44/10 7/29/10 5/28/10
f 3/45/10 7/29/10 4/44/10
f 3/45/10 8/46/10 7/29/10
f 2/47/10 1/48/10 3/45/10
f 1/48/10 8/46/10 3/45/10
