# Blender v2.69 (sub 0) OBJ File: 'RotateBase.blend'
# www.blender.org
v 0.192555 -0.192555 0.000000
v -0.192555 -0.192555 0.000000
v 0.192555 0.192555 0.000000
v -0.192555 0.192555 0.000000
v 0.192555 -0.192555 0.075000
v -0.192555 -0.192555 0.075000
v 0.192555 0.192555 0.075000
v -0.192555 0.192555 0.075000
vt 0.009071 0.990929
vt 0.009071 0.509071
vt 0.490928 0.990929
vt 0.009072 0.009072
vt 0.490929 0.009071
vt 0.009071 0.490929
vt 0.509071 0.397087
vt 0.990928 0.397087
vt 0.509071 0.490929
vt 0.990928 0.102913
vt 0.509071 0.102913
vt 0.990928 0.009071
vt 0.990928 0.602913
vt 0.509071 0.602913
vt 0.990928 0.509071
vt 0.509071 0.621056
vt 0.990928 0.621056
vt 0.509072 0.714897
vt 0.490928 0.509071
vt 0.490928 0.490929
vt 0.990928 0.490929
vt 0.509071 0.009072
vt 0.509071 0.509072
vt 0.990928 0.714897
vn 0.000000 0.000000 -1.000000
vn 0.000000 0.000000 1.000000
vn 1.000000 0.000000 0.000000
vn -1.000000 0.000000 0.000000
vn 0.000000 1.000000 0.000000
vn 0.000000 -1.000000 0.000000
s off
f 2/1/1 4/2/1 1/3/1
f 6/4/2 5/5/2 8/6/2
f 1/7/3 3/8/3 5/9/3
f 4/10/4 2/11/4 8/12/4
f 3/13/5 4/14/5 7/15/5
f 2/16/6 1/17/6 6/18/6
f 4/2/1 3/19/1 1/3/1
f 5/5/2 7/20/2 8/6/2
f 3/8/3 7/21/3 5/9/3
f 2/11/4 6/22/4 8/12/4
f 4/14/5 8/23/5 7/15/5
f 1/17/6 5/24/6 6/18/6
